# xmcd CD database file
#
# Track frame offsets:
#	150
#	19351
#	33555
#	45766
#	56539
#	68564
#	81284
#	92010
#	110022
#	120930
#	141344
#	157419
#	170094
#	186394
#	200619
#	213722
#	222397
#	237110
#	247532
#	276782
#	292655
#	313931
#
# Disc length: 4441 seconds
#
# Revision: 0
# Processed by: cddbd v1.5.1PL2 Copyright (c) Steve Scherf et al.
# Submitted via: CDex 1.51
#
DISCID=46115716
DTITLE=Various/The Animals - The Animals
DYEAR=2003
DGENRE=Blues
TTITLE0=Bad Company - Can´t get enough of tour love
TTITLE1=Canned Heat - On the road again
TTITLE2=Harry Nilsson - Everybody´s talkin´
TTITLE3=The Animals - Baby Let Me Take You Home
TTITLE4=The Animals - Bring It On Home To Me
TTITLE5=The Animals - Bury my body
TTITLE6=The Animals - Club A-G-Go
TTITLE7=The Animals - For Miss Caulker
TTITLE8=The Animals - Gonna send you back to walker
TTITLE9=The Animals - House of the rising sun
TTITLE10=The Animals - I Can´t believe it
TTITLE11=The Animals - I´m Crying
TTITLE12=The Animals - I´m gonna change the world
TTITLE13=The Animals - It´s my life
TTITLE14=The Animals - Take it easy
TTITLE15=The Animals - Talkin´ ´bout you
TTITLE16=The Animals - We gotta get out of this place
TTITLE17=The Animals - Don´t let me be misunderstood
TTITLE18=The Eagles - Hotel California
TTITLE19=The Eagles - Take it easy
TTITLE20=Linyrd Skynyrd - Sweet Home Alabama
TTITLE21=Free - All right now
EXTD=YEAR: 2003
EXTT0=
EXTT1=
EXTT2=
EXTT3=
EXTT4=
EXTT5=
EXTT6=
EXTT7=
EXTT8=
EXTT9=
EXTT10=
EXTT11=
EXTT12=
EXTT13=
EXTT14=
EXTT15=
EXTT16=
EXTT17=
EXTT18=
EXTT19=
EXTT20=
EXTT21=
PLAYORDER=
